<svg width="80" height="36" viewBox="0 0 80 36" fill="none" xmlns="http://www.w3.org/2000/svg">
<g clip-path="url(#clip0_48186_37084)">
<path d="M28.9417 0C24.1729 0.0154332 19.6051 1.92265 16.2412 5.30292C12.8773 8.68318 10.9923 13.2602 11 18.029C11.0077 22.7979 12.9076 27.3688 16.2824 30.7381C19.6572 34.1075 24.2311 35.9999 29 35.9999C33.7689 35.9999 38.3428 34.1075 41.7176 30.7381C45.0924 27.3688 46.9923 22.7979 47 18.029C47.0077 13.2602 45.1227 8.68318 41.7588 5.30292C38.3949 1.92265 33.8271 0.0154332 29.0583 0L28.9417 0Z" fill="#5B6473"/>
<path d="M51.1942 0C46.4254 0.0154332 41.8576 1.92265 38.4937 5.30292C35.1298 8.68318 33.2447 13.2602 33.2525 18.029C33.2602 22.7979 35.16 27.3688 38.5348 30.7381C41.9096 34.1075 46.4836 35.9999 51.2524 35.9999C56.0213 35.9999 60.5952 34.1075 63.9701 30.7381C67.3449 27.3688 69.2447 22.7979 69.2524 18.029C69.2601 13.2602 67.3751 8.68318 64.0112 5.30292C60.6473 1.92265 56.0795 0.0154332 51.3107 0L51.1942 0Z" fill="#A4AAB4"/>
<path d="M40.1261 3.84473C37.982 5.52894 36.2484 7.67826 35.0563 10.1304C33.8643 12.5826 33.2449 15.2735 33.2449 18.0001C33.2449 20.7266 33.8643 23.4176 35.0563 25.8697C36.2484 28.3219 37.982 30.4712 40.1261 32.1554C42.2703 30.4712 44.0039 28.3219 45.1959 25.8697C46.388 23.4176 47.0074 20.7266 47.0074 18.0001C47.0074 15.2735 46.388 12.5826 45.1959 10.1304C44.0039 7.67826 42.2703 5.52894 40.1261 3.84473Z" fill="#7F8692"/>
</g>
<defs>
<clipPath id="clip0_48186_37084">
<rect width="58.2524" height="36" fill="white" transform="translate(11)"/>
</clipPath>
</defs>
</svg>
